<svg width="76" height="40" viewBox="0 0 76 40" fill="none" xmlns="http://www.w3.org/2000/svg">
<g id="Frame 219">
<rect x="0.5" y="0.5" width="75" height="39" rx="9.5" fill="#4B7BB3" fill-opacity="0.25"/>
<rect x="0.5" y="0.5" width="75" height="39" rx="9.5" stroke="url(#paint0_linear_669_5039)"/>
<g id="Group 21">
<g id="Vector">
<path d="M35.5297 12.9935H31.6883V19.0673H35.5297V12.9935Z" fill="white"/>
<path d="M69.2262 8.00441C68.5532 8.66501 68.0434 9.19839 67.2272 9.81985C66.6805 10.2407 66.1953 10.7311 65.7834 11.2781C65.5072 11.6418 65.2792 11.7745 64.9153 11.7723C62.7922 11.7576 60.6686 11.7658 58.5456 11.7397C58.1761 11.7353 58.1096 11.8452 58.1107 12.1757C58.1241 16.2769 58.1179 20.3782 58.1308 24.4794C58.1319 24.7942 58.0799 24.9083 57.7188 24.8969C56.6646 24.8643 55.6086 24.8681 54.5538 24.8784C54.2704 24.8817 54.1642 24.8333 54.1648 24.5207C54.1731 20.432 54.1715 16.3433 54.1597 12.2546C54.1586 11.669 54.1916 11.7696 53.6354 11.7663C52.2458 11.7587 50.8561 11.7571 49.4665 11.7468C49.3256 11.7457 49.1763 11.7952 49.0657 11.6146C48.2255 10.2537 47.0488 9.19132 45.8073 8.18981C45.7497 8.14359 45.6983 8.09085 45.6033 8.00441H69.2262Z" fill="white"/>
<path d="M41.3192 24.8877C39.9687 24.9404 38.5237 24.8811 37.1267 24.8773V21.0659C38.1821 21.0572 39.2392 21.0795 40.2951 21.0491C42.8089 20.974 44.857 19.0281 44.923 16.6853C44.9945 14.0934 43.1968 12.0599 40.5791 11.8316C39.7495 11.7587 38.9088 11.781 38.0726 11.7794C34.1747 11.7712 30.2763 11.7728 26.3785 11.7555C26.047 11.7538 26.0755 11.9082 26.0755 12.117C26.0772 16.2318 26.0716 20.3439 26.0878 24.4576C26.0895 24.8975 25.9503 24.9333 25.3734 24.886C24.4897 24.8143 23.602 24.8164 22.7188 24.8915C22.271 24.9268 22.1755 24.8523 22.1755 24.5033C22.1788 20.4032 22.1615 16.302 22.1648 12.2013C22.1648 11.8675 22.0883 11.7663 21.7294 11.7701C19.9283 11.7881 18.1256 11.7718 16.3245 11.7783C15.8717 11.7799 15.6677 11.5059 15.2848 10.7284C14.6822 9.50449 13.562 8.64489 12.264 8.14576C12.2053 8.12401 12.2014 8.08976 12.1494 8.00168C21.3945 8.00168 30.5927 7.99624 39.7931 8.00494C42.5663 8.00929 44.9839 8.88847 46.8057 10.9823C50.756 15.5212 49.1445 23.5572 41.3192 24.8877Z" fill="white"/>
<path d="M35.4721 22.4872C35.4755 22.5318 35.4856 22.5753 35.4856 22.6199V23.9084C35.4856 23.9084 35.4794 24.2999 34.9623 24.4168C34.4453 24.5337 32.1758 24.4168 32.1758 24.4168C32.1758 24.4168 31.6531 24.4554 31.6531 23.9084V21.1975C31.6531 21.1975 31.6755 20.6891 32.1758 20.6891H33.4754C33.6275 20.6891 33.7784 20.6587 33.9176 20.5989C34.362 20.4086 35.3648 19.941 35.7947 19.4435C35.8182 19.4158 35.8433 19.3897 35.8707 19.3658C36.0608 19.1977 36.8987 18.4219 36.8987 17.764V15.4945C36.8964 15.3635 36.9294 15.2346 36.9943 15.1199C37.0759 14.9639 37.2413 14.8655 37.4219 14.866H40.2085C40.2085 14.866 40.7311 14.922 40.7311 15.3744V18.0853C40.7311 18.0853 40.6842 18.6089 40.2085 18.5937C39.8636 18.5823 39.2845 18.5877 38.9938 18.591C38.8747 18.5926 38.7579 18.6192 38.6506 18.6687C38.1665 18.8938 36.9132 19.593 36.6885 19.9209C36.6885 19.9209 35.3928 21.3237 35.4721 22.4872Z" fill="white"/>
</g>
<g id="TetraDtech Solutions">
<path d="M8.07144 31.9868C7.9351 31.9868 7.82955 31.9491 7.75479 31.8736C7.68442 31.7936 7.64924 31.6848 7.64924 31.5471V27.9497H6.36283C6.24848 27.9497 6.15833 27.9186 6.09236 27.8564C6.03079 27.7898 6 27.701 6 27.5899C6 27.4745 6.03079 27.3878 6.09236 27.3301C6.15833 27.2679 6.24848 27.2368 6.36283 27.2368H9.78005C9.89439 27.2368 9.98235 27.2679 10.0439 27.3301C10.1099 27.3878 10.1429 27.4745 10.1429 27.5899C10.1429 27.701 10.1099 27.7898 10.0439 27.8564C9.98235 27.9186 9.89439 27.9497 9.78005 27.9497H8.49364V31.5471C8.49364 31.6848 8.45846 31.7936 8.38809 31.8736C8.31773 31.9491 8.21217 31.9868 8.07144 31.9868Z" fill="white"/>
<path d="M11.6204 32.0002C11.2554 32.0002 10.9409 31.9313 10.677 31.7936C10.4131 31.656 10.2086 31.4605 10.0635 31.2074C9.92277 30.9542 9.85241 30.6544 9.85241 30.308C9.85241 29.9705 9.92058 29.6751 10.0569 29.422C10.1976 29.1688 10.389 28.9712 10.6308 28.8291C10.8771 28.6825 11.1564 28.6092 11.4687 28.6092C11.6974 28.6092 11.9019 28.647 12.0822 28.7225C12.2669 28.798 12.423 28.9068 12.5506 29.0489C12.6825 29.191 12.7814 29.3642 12.8474 29.5685C12.9178 29.7684 12.953 29.9949 12.953 30.2481C12.953 30.328 12.9244 30.3902 12.8672 30.4346C12.8144 30.4746 12.7375 30.4946 12.6363 30.4946H10.5187V30.0149H12.3724L12.2669 30.1148C12.2669 29.9105 12.2361 29.7395 12.1745 29.6018C12.1174 29.4642 12.0316 29.3598 11.9172 29.2887C11.8073 29.2132 11.6688 29.1755 11.5016 29.1755C11.3169 29.1755 11.1586 29.2199 11.0267 29.3087C10.8991 29.3931 10.8002 29.5152 10.7298 29.6751C10.6638 29.8306 10.6308 30.0171 10.6308 30.2347V30.2814C10.6308 30.6456 10.7144 30.9187 10.8815 31.1008C11.0531 31.2784 11.3037 31.3673 11.6336 31.3673C11.7479 31.3673 11.8755 31.354 12.0162 31.3273C12.1613 31.2962 12.2977 31.2451 12.4252 31.1741C12.5176 31.1208 12.5989 31.0986 12.6693 31.1075C12.7397 31.1119 12.7946 31.1363 12.8342 31.1807C12.8782 31.2252 12.9046 31.2807 12.9134 31.3473C12.9222 31.4095 12.909 31.4739 12.8738 31.5405C12.843 31.6071 12.788 31.6648 12.7089 31.7137C12.555 31.8114 12.3768 31.8847 12.1745 31.9335C11.9766 31.978 11.7919 32.0002 11.6204 32.0002Z" fill="white"/>
<path d="M15.0708 32.0002C14.785 32.0002 14.5453 31.9513 14.3518 31.8536C14.1627 31.7559 14.0219 31.6138 13.9296 31.4272C13.8372 31.2363 13.791 31.0009 13.791 30.7211V29.3021H13.448C13.3424 29.3021 13.2611 29.2754 13.2039 29.2221C13.1467 29.1644 13.1181 29.0867 13.1181 28.9889C13.1181 28.8868 13.1467 28.8091 13.2039 28.7558C13.2611 28.7025 13.3424 28.6758 13.448 28.6758H13.791V28.0696C13.791 27.9319 13.8262 27.8275 13.8966 27.7565C13.9714 27.6854 14.0747 27.6499 14.2066 27.6499C14.3386 27.6499 14.4397 27.6854 14.5101 27.7565C14.5805 27.8275 14.6157 27.9319 14.6157 28.0696V28.6758H15.3149C15.4205 28.6758 15.5018 28.7025 15.559 28.7558C15.6162 28.8091 15.6448 28.8868 15.6448 28.9889C15.6448 29.0867 15.6162 29.1644 15.559 29.2221C15.5018 29.2754 15.4205 29.3021 15.3149 29.3021H14.6157V30.6744C14.6157 30.8876 14.6618 31.0475 14.7542 31.1541C14.8465 31.2607 14.9961 31.314 15.2028 31.314C15.2775 31.314 15.3435 31.3073 15.4007 31.294C15.4579 31.2807 15.5084 31.2718 15.5524 31.2673C15.6052 31.2629 15.6492 31.2807 15.6844 31.3206C15.7195 31.3562 15.7371 31.4317 15.7371 31.5471C15.7371 31.636 15.7217 31.7159 15.691 31.787C15.6646 31.8536 15.614 31.9002 15.5392 31.9269C15.4821 31.9446 15.4073 31.9602 15.3149 31.9735C15.2226 31.9913 15.1412 32.0002 15.0708 32.0002Z" fill="white"/>
<path d="M16.5472 31.9868C16.4108 31.9868 16.3053 31.9513 16.2305 31.8802C16.1601 31.8047 16.125 31.6982 16.125 31.5605V29.0422C16.125 28.9046 16.1601 28.8002 16.2305 28.7291C16.3009 28.6581 16.3998 28.6225 16.5274 28.6225C16.6549 28.6225 16.7539 28.6581 16.8242 28.7291C16.8946 28.8002 16.9298 28.9046 16.9298 29.0422V29.4619H16.8638C16.9254 29.1955 17.0463 28.9934 17.2267 28.8557C17.407 28.718 17.6467 28.6359 17.9457 28.6092C18.0381 28.6003 18.1106 28.6248 18.1634 28.6825C18.2206 28.7358 18.2536 28.8202 18.2624 28.9356C18.2712 29.0467 18.2448 29.1377 18.1832 29.2088C18.126 29.2754 18.0381 29.3154 17.9193 29.3287L17.7742 29.342C17.5059 29.3687 17.3036 29.4531 17.1673 29.5952C17.0309 29.7329 16.9628 29.9283 16.9628 30.1814V31.5605C16.9628 31.6982 16.9276 31.8047 16.8572 31.8802C16.7869 31.9513 16.6835 31.9868 16.5472 31.9868Z" fill="white"/>
<path d="M19.7382 32.0002C19.5051 32.0002 19.2962 31.9557 19.1115 31.8669C18.9312 31.7737 18.7883 31.6493 18.6827 31.4939C18.5816 31.3384 18.531 31.163 18.531 30.9676C18.531 30.7277 18.5926 30.539 18.7157 30.4013C18.8388 30.2592 19.039 30.157 19.316 30.0948C19.5931 30.0327 19.9647 30.0016 20.4309 30.0016H20.7608V30.4812H20.4375C20.1648 30.4812 19.9471 30.4946 19.7844 30.5212C19.6217 30.5478 19.5051 30.5945 19.4348 30.6611C19.3688 30.7233 19.3358 30.8121 19.3358 30.9276C19.3358 31.0741 19.3864 31.1941 19.4875 31.2873C19.5887 31.3806 19.7294 31.4272 19.9098 31.4272C20.0549 31.4272 20.1824 31.3939 20.2924 31.3273C20.4067 31.2562 20.4969 31.1608 20.5628 31.0408C20.6288 30.9209 20.6618 30.7832 20.6618 30.6278V29.8617C20.6618 29.6396 20.6134 29.4797 20.5167 29.382C20.4199 29.2843 20.2572 29.2354 20.0285 29.2354C19.901 29.2354 19.7624 29.251 19.6129 29.2821C19.4678 29.3132 19.3138 29.3665 19.1511 29.442C19.0675 29.4819 18.9928 29.493 18.9268 29.4753C18.8652 29.4575 18.8169 29.422 18.7817 29.3687C18.7465 29.3109 18.7289 29.2488 18.7289 29.1821C18.7289 29.1155 18.7465 29.0511 18.7817 28.9889C18.8169 28.9223 18.8762 28.8735 18.9598 28.8424C19.1621 28.758 19.3556 28.698 19.5403 28.6625C19.7294 28.627 19.901 28.6092 20.0549 28.6092C20.3715 28.6092 20.631 28.6581 20.8333 28.7558C21.04 28.8535 21.194 29.0023 21.2951 29.2021C21.3963 29.3975 21.4468 29.6507 21.4468 29.9616V31.5605C21.4468 31.6982 21.4139 31.8047 21.3479 31.8802C21.2819 31.9513 21.1874 31.9868 21.0642 31.9868C20.9411 31.9868 20.8443 31.9513 20.774 31.8802C20.708 31.8047 20.675 31.6982 20.675 31.5605V31.2407H20.7278C20.697 31.3961 20.6354 31.5316 20.5431 31.6471C20.4551 31.7581 20.343 31.8447 20.2066 31.9069C20.0703 31.9691 19.9141 32.0002 19.7382 32.0002Z" fill="white"/>
<path d="M22.8116 31.9335C22.6664 31.9335 22.5543 31.8958 22.4751 31.8203C22.4004 31.7403 22.363 31.6271 22.363 31.4805V27.6899C22.363 27.5433 22.4004 27.4323 22.4751 27.3568C22.5543 27.2768 22.6664 27.2368 22.8116 27.2368H24.0914C24.8698 27.2368 25.4701 27.4389 25.8924 27.8431C26.319 28.2472 26.5323 28.8268 26.5323 29.5819C26.5323 29.9594 26.4773 30.2947 26.3673 30.5878C26.2618 30.8765 26.1035 31.1208 25.8924 31.3206C25.6856 31.5205 25.4306 31.6737 25.1271 31.7803C24.828 31.8825 24.4828 31.9335 24.0914 31.9335H22.8116ZM23.2074 31.2274H24.0386C24.3113 31.2274 24.5466 31.1941 24.7445 31.1274C24.9468 31.0564 25.1139 30.9542 25.2459 30.821C25.3822 30.6833 25.4833 30.5123 25.5493 30.308C25.6153 30.0993 25.6483 29.8572 25.6483 29.5819C25.6483 29.0311 25.5141 28.6203 25.2459 28.3494C24.9776 28.0785 24.5752 27.943 24.0386 27.943H23.2074V31.2274Z" fill="white"/>
<path d="M28.7866 32.0002C28.5007 32.0002 28.261 31.9513 28.0675 31.8536C27.8784 31.7559 27.7376 31.6138 27.6453 31.4272C27.5529 31.2363 27.5067 31.0009 27.5067 30.7211V29.3021H27.1637C27.0582 29.3021 26.9768 29.2754 26.9196 29.2221C26.8624 29.1644 26.8339 29.0867 26.8339 28.9889C26.8339 28.8868 26.8624 28.8091 26.9196 28.7558C26.9768 28.7025 27.0582 28.6758 27.1637 28.6758H27.5067V28.0696C27.5067 27.9319 27.5419 27.8275 27.6123 27.7565C27.6871 27.6854 27.7904 27.6499 27.9224 27.6499C28.0543 27.6499 28.1554 27.6854 28.2258 27.7565C28.2962 27.8275 28.3314 27.9319 28.3314 28.0696V28.6758H29.0306C29.1362 28.6758 29.2176 28.7025 29.2747 28.7558C29.3319 28.8091 29.3605 28.8868 29.3605 28.9889C29.3605 29.0867 29.3319 29.1644 29.2747 29.2221C29.2176 29.2754 29.1362 29.3021 29.0306 29.3021H28.3314V30.6744C28.3314 30.8876 28.3775 31.0475 28.4699 31.1541C28.5623 31.2607 28.7118 31.314 28.9185 31.314C28.9933 31.314 29.0592 31.3073 29.1164 31.294C29.1736 31.2807 29.2242 31.2718 29.2681 31.2673C29.3209 31.2629 29.3649 31.2807 29.4001 31.3206C29.4353 31.3562 29.4528 31.4317 29.4528 31.5471C29.4528 31.636 29.4375 31.7159 29.4067 31.787C29.3803 31.8536 29.3297 31.9002 29.2549 31.9269C29.1978 31.9446 29.123 31.9602 29.0306 31.9735C28.9383 31.9913 28.8569 32.0002 28.7866 32.0002Z" fill="white"/>
<path d="M31.3983 32.0002C31.0333 32.0002 30.7188 31.9313 30.455 31.7936C30.1911 31.656 29.9866 31.4605 29.8414 31.2074C29.7007 30.9542 29.6303 30.6544 29.6303 30.308C29.6303 29.9705 29.6985 29.6751 29.8348 29.422C29.9756 29.1688 30.1669 28.9712 30.4088 28.8291C30.6551 28.6825 30.9343 28.6092 31.2466 28.6092C31.4753 28.6092 31.6798 28.647 31.8601 28.7225C32.0448 28.798 32.201 28.9068 32.3285 29.0489C32.4604 29.191 32.5594 29.3642 32.6254 29.5685C32.6957 29.7684 32.7309 29.9949 32.7309 30.2481C32.7309 30.328 32.7023 30.3902 32.6451 30.4346C32.5924 30.4746 32.5154 30.4946 32.4143 30.4946H30.2966V30.0149H32.1504L32.0448 30.1148C32.0448 29.9105 32.014 29.7395 31.9525 29.6018C31.8953 29.4642 31.8095 29.3598 31.6952 29.2887C31.5852 29.2132 31.4467 29.1755 31.2796 29.1755C31.0949 29.1755 30.9365 29.2199 30.8046 29.3087C30.6771 29.3931 30.5781 29.5152 30.5077 29.6751C30.4418 29.8306 30.4088 30.0171 30.4088 30.2347V30.2814C30.4088 30.6456 30.4923 30.9187 30.6595 31.1008C30.831 31.2784 31.0817 31.3673 31.4115 31.3673C31.5259 31.3673 31.6534 31.354 31.7941 31.3273C31.9393 31.2962 32.0756 31.2451 32.2031 31.1741C32.2955 31.1208 32.3769 31.0986 32.4472 31.1075C32.5176 31.1119 32.5726 31.1363 32.6122 31.1807C32.6561 31.2252 32.6825 31.2807 32.6913 31.3473C32.7001 31.4095 32.6869 31.4739 32.6517 31.5405C32.621 31.6071 32.566 31.6648 32.4868 31.7137C32.3329 31.8114 32.1548 31.8847 31.9525 31.9335C31.7546 31.978 31.5698 32.0002 31.3983 32.0002Z" fill="white"/>
<path d="M34.8749 32.0002C34.5362 32.0002 34.2416 31.9313 33.9909 31.7936C33.7402 31.6515 33.5467 31.4517 33.4103 31.1941C33.274 30.9365 33.2058 30.6345 33.2058 30.288C33.2058 30.026 33.2432 29.7928 33.318 29.5885C33.3971 29.3798 33.5093 29.2043 33.6544 29.0622C33.7996 28.9157 33.9755 28.8046 34.1822 28.7291C34.3889 28.6492 34.6198 28.6092 34.8749 28.6092C35.02 28.6092 35.1761 28.6292 35.3432 28.6692C35.5148 28.7091 35.6753 28.7758 35.8248 28.869C35.8952 28.9134 35.9414 28.9667 35.9634 29.0289C35.9853 29.0911 35.9897 29.1555 35.9765 29.2221C35.9634 29.2843 35.9348 29.3398 35.8908 29.3887C35.8512 29.4331 35.8006 29.4619 35.7391 29.4753C35.6775 29.4842 35.6093 29.4686 35.5346 29.4286C35.4378 29.3709 35.3388 29.3287 35.2377 29.3021C35.1365 29.271 35.0398 29.2554 34.9474 29.2554C34.8023 29.2554 34.6748 29.2799 34.5648 29.3287C34.4549 29.3731 34.3603 29.4397 34.2811 29.5286C34.2064 29.613 34.1492 29.7195 34.1096 29.8483C34.07 29.9771 34.0502 30.1259 34.0502 30.2947C34.0502 30.6234 34.1272 30.8832 34.2811 31.0741C34.4395 31.2607 34.6616 31.354 34.9474 31.354C35.0398 31.354 35.1343 31.3406 35.2311 31.314C35.3322 31.2873 35.4334 31.2451 35.5346 31.1874C35.6093 31.1474 35.6753 31.1341 35.7325 31.1474C35.794 31.1608 35.8446 31.1918 35.8842 31.2407C35.9238 31.2851 35.948 31.3406 35.9568 31.4072C35.9656 31.4694 35.9568 31.5316 35.9304 31.5938C35.9084 31.656 35.8644 31.707 35.7984 31.747C35.6533 31.8358 35.4994 31.9002 35.3366 31.9402C35.1739 31.9802 35.02 32.0002 34.8749 32.0002Z" fill="white"/>
<path d="M36.9046 31.9868C36.7727 31.9868 36.6715 31.9513 36.6011 31.8802C36.5308 31.8047 36.4956 31.6982 36.4956 31.5605V27.6033C36.4956 27.4656 36.5308 27.3612 36.6011 27.2901C36.6715 27.2191 36.7727 27.1835 36.9046 27.1835C37.0365 27.1835 37.1377 27.2191 37.2081 27.2901C37.2828 27.3612 37.3202 27.4656 37.3202 27.6033V29.3287H37.2279C37.3246 29.0933 37.4741 28.9157 37.6764 28.7957C37.8832 28.6714 38.1162 28.6092 38.3757 28.6092C38.6352 28.6092 38.8485 28.6581 39.0156 28.7558C39.1827 28.8535 39.3081 29.0023 39.3917 29.2021C39.4752 29.3975 39.517 29.6463 39.517 29.9483V31.5605C39.517 31.6982 39.4818 31.8047 39.4114 31.8802C39.3411 31.9513 39.2399 31.9868 39.108 31.9868C38.976 31.9868 38.8727 31.9513 38.7979 31.8802C38.7276 31.8047 38.6924 31.6982 38.6924 31.5605V29.9882C38.6924 29.7351 38.644 29.5508 38.5472 29.4353C38.4549 29.3198 38.3098 29.2621 38.1118 29.2621C37.87 29.2621 37.6764 29.3398 37.5313 29.4953C37.3906 29.6463 37.3202 29.8483 37.3202 30.1015V31.5605C37.3202 31.8447 37.1817 31.9868 36.9046 31.9868Z" fill="white"/>
<path d="M43.8277 32.0002C43.6342 32.0002 43.4407 31.9846 43.2472 31.9535C43.0537 31.9269 42.8712 31.8847 42.6997 31.827C42.5281 31.7648 42.3742 31.6893 42.2379 31.6004C42.1587 31.5471 42.1037 31.4827 42.0729 31.4072C42.0422 31.3317 42.0312 31.2585 42.04 31.1874C42.0532 31.1119 42.0817 31.0475 42.1257 30.9942C42.1741 30.9365 42.2335 30.9009 42.3038 30.8876C42.3742 30.8743 42.4512 30.8943 42.5347 30.9476C42.7282 31.063 42.9327 31.1474 43.1482 31.2007C43.3637 31.254 43.5902 31.2807 43.8277 31.2807C44.1752 31.2807 44.4281 31.2229 44.5864 31.1075C44.7447 30.9875 44.8239 30.8343 44.8239 30.6478C44.8239 30.4923 44.7667 30.3702 44.6523 30.2814C44.5424 30.1925 44.3511 30.1193 44.0784 30.0615L43.3528 29.9083C42.9349 29.8195 42.6227 29.6707 42.416 29.4619C42.2137 29.2488 42.1125 28.969 42.1125 28.6225C42.1125 28.4049 42.1565 28.2073 42.2445 28.0296C42.3324 27.852 42.4556 27.6987 42.6139 27.5699C42.7766 27.4411 42.9679 27.3434 43.1878 27.2768C43.4121 27.2058 43.6584 27.1702 43.9267 27.1702C44.1906 27.1702 44.4412 27.2035 44.6787 27.2702C44.9162 27.3368 45.1295 27.4345 45.3186 27.5633C45.389 27.6121 45.4352 27.6721 45.4572 27.7432C45.4836 27.8142 45.4902 27.8853 45.477 27.9563C45.4638 28.023 45.433 28.0807 45.3846 28.1295C45.3362 28.1784 45.2747 28.2073 45.1999 28.2162C45.1295 28.225 45.0482 28.2028 44.9558 28.1495C44.7931 28.0563 44.6282 27.9896 44.461 27.9497C44.2939 27.9097 44.1136 27.8897 43.9201 27.8897C43.7178 27.8897 43.5441 27.9186 43.3989 27.9763C43.2538 28.0341 43.1417 28.1162 43.0625 28.2228C42.9877 28.325 42.9503 28.4471 42.9503 28.5892C42.9503 28.7491 43.0031 28.8779 43.1087 28.9756C43.2142 29.0689 43.3945 29.1422 43.6496 29.1955L44.3687 29.3487C44.8041 29.442 45.1273 29.5885 45.3384 29.7884C45.5539 29.9882 45.6617 30.2547 45.6617 30.5878C45.6617 30.801 45.6177 30.9942 45.5297 31.1674C45.4462 31.3406 45.323 31.4894 45.1603 31.6138C45.002 31.7381 44.8107 31.8336 44.5864 31.9002C44.3621 31.9669 44.1092 32.0002 43.8277 32.0002Z" fill="white"/>
<path d="M47.7784 32.0002C47.4441 32.0002 47.1539 31.9313 46.9076 31.7936C46.6613 31.656 46.47 31.4605 46.3336 31.2074C46.1973 30.9498 46.1291 30.6478 46.1291 30.3014C46.1291 30.0393 46.1665 29.8061 46.2413 29.6018C46.3204 29.3931 46.4326 29.2155 46.5777 29.0689C46.7229 28.9179 46.8966 28.8046 47.0989 28.7291C47.3012 28.6492 47.5277 28.6092 47.7784 28.6092C48.1126 28.6092 48.4029 28.6781 48.6492 28.8157C48.8955 28.9534 49.0868 29.1488 49.2231 29.402C49.3594 29.6551 49.4276 29.9549 49.4276 30.3014C49.4276 30.5634 49.388 30.7988 49.3089 31.0075C49.2341 31.2163 49.1241 31.3961 48.979 31.5471C48.8339 31.6937 48.6602 31.807 48.4579 31.8869C48.2555 31.9624 48.0291 32.0002 47.7784 32.0002ZM47.7784 31.3673C47.9411 31.3673 48.084 31.3273 48.2072 31.2474C48.3303 31.1674 48.4249 31.0497 48.4908 30.8943C48.5612 30.7344 48.5964 30.5367 48.5964 30.3014C48.5964 29.946 48.5216 29.6818 48.3721 29.5086C48.2226 29.3309 48.0247 29.2421 47.7784 29.2421C47.6156 29.2421 47.4727 29.2821 47.3496 29.362C47.2264 29.4375 47.1297 29.5552 47.0593 29.7151C46.9933 29.8705 46.9604 30.066 46.9604 30.3014C46.9604 30.6522 47.0351 30.9187 47.1846 31.1008C47.3342 31.2784 47.5321 31.3673 47.7784 31.3673Z" fill="white"/>
<path d="M51.2099 32.0002C50.8449 32.0002 50.57 31.8958 50.3853 31.687C50.2006 31.4739 50.1082 31.163 50.1082 30.7544V27.6033C50.1082 27.4656 50.1434 27.3612 50.2138 27.2901C50.2841 27.2191 50.3853 27.1835 50.5172 27.1835C50.6492 27.1835 50.7503 27.2191 50.8207 27.2901C50.8955 27.3612 50.9328 27.4656 50.9328 27.6033V30.7144C50.9328 30.9187 50.9746 31.0697 51.0582 31.1674C51.1461 31.2651 51.2693 31.314 51.4276 31.314C51.4628 31.314 51.4958 31.314 51.5266 31.314C51.5574 31.3095 51.5881 31.3051 51.6189 31.3007C51.6805 31.2918 51.7223 31.3095 51.7443 31.354C51.7663 31.3939 51.7772 31.4783 51.7772 31.6071C51.7772 31.7181 51.7553 31.8047 51.7113 31.8669C51.6673 31.9291 51.5947 31.9669 51.4936 31.9802C51.4496 31.9846 51.4034 31.9891 51.355 31.9935C51.3067 31.9979 51.2583 32.0002 51.2099 32.0002Z" fill="white"/>
<path d="M53.3825 32.0002C53.1143 32.0002 52.8922 31.9513 52.7162 31.8536C52.5403 31.7514 52.4084 31.6004 52.3204 31.4006C52.2369 31.2007 52.1951 30.952 52.1951 30.6544V29.0422C52.1951 28.9001 52.2303 28.7957 52.3006 28.7291C52.371 28.6581 52.4721 28.6225 52.6041 28.6225C52.736 28.6225 52.8372 28.6581 52.9075 28.7291C52.9823 28.7957 53.0197 28.9001 53.0197 29.0422V30.6678C53.0197 30.8987 53.0659 31.0697 53.1582 31.1807C53.2506 31.2918 53.3979 31.3473 53.6002 31.3473C53.8201 31.3473 54.0004 31.2718 54.1412 31.1208C54.2819 30.9653 54.3523 30.761 54.3523 30.5079V29.0422C54.3523 28.9001 54.3875 28.7957 54.4578 28.7291C54.5282 28.6581 54.6293 28.6225 54.7613 28.6225C54.8932 28.6225 54.9944 28.6581 55.0647 28.7291C55.1395 28.7957 55.1769 28.9001 55.1769 29.0422V31.5605C55.1769 31.8447 55.0428 31.9868 54.7745 31.9868C54.6469 31.9868 54.548 31.9513 54.4776 31.8802C54.4072 31.8047 54.3721 31.6982 54.3721 31.5605V31.0542L54.4644 31.254C54.3721 31.4939 54.2313 31.6782 54.0422 31.807C53.8575 31.9358 53.6376 32.0002 53.3825 32.0002Z" fill="white"/>
<path d="M57.5129 32.0002C57.227 32.0002 56.9873 31.9513 56.7938 31.8536C56.6047 31.7559 56.464 31.6138 56.3716 31.4272C56.2793 31.2363 56.2331 31.0009 56.2331 30.7211V29.3021H55.89C55.7845 29.3021 55.7031 29.2754 55.6459 29.2221C55.5888 29.1644 55.5602 29.0867 55.5602 28.9889C55.5602 28.8868 55.5888 28.8091 55.6459 28.7558C55.7031 28.7025 55.7845 28.6758 55.89 28.6758H56.2331V28.0696C56.2331 27.9319 56.2683 27.8275 56.3386 27.7565C56.4134 27.6854 56.5167 27.6499 56.6487 27.6499C56.7806 27.6499 56.8818 27.6854 56.9521 27.7565C57.0225 27.8275 57.0577 27.9319 57.0577 28.0696V28.6758H57.757C57.8625 28.6758 57.9439 28.7025 58.001 28.7558C58.0582 28.8091 58.0868 28.8868 58.0868 28.9889C58.0868 29.0867 58.0582 29.1644 58.001 29.2221C57.9439 29.2754 57.8625 29.3021 57.757 29.3021H57.0577V30.6744C57.0577 30.8876 57.1039 31.0475 57.1962 31.1541C57.2886 31.2607 57.4381 31.314 57.6448 31.314C57.7196 31.314 57.7856 31.3073 57.8427 31.294C57.8999 31.2807 57.9505 31.2718 57.9945 31.2673C58.0472 31.2629 58.0912 31.2807 58.1264 31.3206C58.1616 31.3562 58.1792 31.4317 58.1792 31.5471C58.1792 31.636 58.1638 31.7159 58.133 31.787C58.1066 31.8536 58.056 31.9002 57.9813 31.9269C57.9241 31.9446 57.8493 31.9602 57.757 31.9735C57.6646 31.9913 57.5832 32.0002 57.5129 32.0002Z" fill="white"/>
<path d="M59.0598 31.9802C58.9278 31.9802 58.8267 31.9402 58.7563 31.8603C58.6859 31.7803 58.6507 31.6693 58.6507 31.5272V29.0822C58.6507 28.9356 58.6859 28.8246 58.7563 28.7491C58.8267 28.6692 58.9278 28.6292 59.0598 28.6292C59.1917 28.6292 59.2929 28.6692 59.3632 28.7491C59.438 28.8246 59.4754 28.9356 59.4754 29.0822V31.5272C59.4754 31.6693 59.4402 31.7803 59.3698 31.8603C59.2994 31.9402 59.1961 31.9802 59.0598 31.9802ZM59.0598 28.0096C58.9058 28.0096 58.7849 27.9719 58.6969 27.8964C58.6134 27.8164 58.5716 27.7076 58.5716 27.5699C58.5716 27.4278 58.6134 27.319 58.6969 27.2435C58.7849 27.168 58.9058 27.1302 59.0598 27.1302C59.2181 27.1302 59.339 27.168 59.4226 27.2435C59.5061 27.319 59.5479 27.4278 59.5479 27.5699C59.5479 27.7076 59.5061 27.8164 59.4226 27.8964C59.339 27.9719 59.2181 28.0096 59.0598 28.0096Z" fill="white"/>
<path d="M61.8033 32.0002C61.4691 32.0002 61.1788 31.9313 60.9325 31.7936C60.6862 31.656 60.4949 31.4605 60.3586 31.2074C60.2222 30.9498 60.1541 30.6478 60.1541 30.3014C60.1541 30.0393 60.1915 29.8061 60.2662 29.6018C60.3454 29.3931 60.4575 29.2155 60.6027 29.0689C60.7478 28.9179 60.9215 28.8046 61.1238 28.7291C61.3261 28.6492 61.5526 28.6092 61.8033 28.6092C62.1376 28.6092 62.4278 28.6781 62.6741 28.8157C62.9204 28.9534 63.1117 29.1488 63.248 29.402C63.3844 29.6551 63.4525 29.9549 63.4525 30.3014C63.4525 30.5634 63.413 30.7988 63.3338 31.0075C63.259 31.2163 63.1491 31.3961 63.004 31.5471C62.8588 31.6937 62.6851 31.807 62.4828 31.8869C62.2805 31.9624 62.054 32.0002 61.8033 32.0002ZM61.8033 31.3673C61.966 31.3673 62.109 31.3273 62.2321 31.2474C62.3553 31.1674 62.4498 31.0497 62.5158 30.8943C62.5862 30.7344 62.6213 30.5367 62.6213 30.3014C62.6213 29.946 62.5466 29.6818 62.397 29.5086C62.2475 29.3309 62.0496 29.2421 61.8033 29.2421C61.6406 29.2421 61.4977 29.2821 61.3745 29.362C61.2514 29.4375 61.1546 29.5552 61.0842 29.7151C61.0183 29.8705 60.9853 30.066 60.9853 30.3014C60.9853 30.6522 61.0601 30.9187 61.2096 31.1008C61.3591 31.2784 61.557 31.3673 61.8033 31.3673Z" fill="white"/>
<path d="M64.5422 31.9868C64.4102 31.9868 64.3091 31.9513 64.2387 31.8802C64.1684 31.8047 64.1332 31.6982 64.1332 31.5605V29.0422C64.1332 28.9046 64.1684 28.8002 64.2387 28.7291C64.3091 28.6581 64.408 28.6225 64.5356 28.6225C64.6631 28.6225 64.7621 28.6581 64.8324 28.7291C64.9028 28.8002 64.938 28.9046 64.938 29.0422V29.4953L64.8654 29.3287C64.9622 29.0933 65.1117 28.9157 65.314 28.7957C65.5207 28.6714 65.7538 28.6092 66.0133 28.6092C66.2728 28.6092 66.4861 28.6581 66.6532 28.7558C66.8203 28.8535 66.9457 29.0023 67.0292 29.2021C67.1128 29.3975 67.1546 29.6463 67.1546 29.9483V31.5605C67.1546 31.6982 67.1194 31.8047 67.049 31.8802C66.9786 31.9513 66.8775 31.9868 66.7456 31.9868C66.6136 31.9868 66.5103 31.9513 66.4355 31.8802C66.3651 31.8047 66.3299 31.6982 66.3299 31.5605V29.9882C66.3299 29.7351 66.2816 29.5508 66.1848 29.4353C66.0925 29.3198 65.9473 29.2621 65.7494 29.2621C65.5075 29.2621 65.314 29.3398 65.1689 29.4953C65.0281 29.6463 64.9578 29.8483 64.9578 30.1015V31.5605C64.9578 31.8447 64.8192 31.9868 64.5422 31.9868Z" fill="white"/>
<path d="M69.173 32.0002C68.9839 32.0002 68.7838 31.9802 68.5727 31.9402C68.3615 31.9002 68.1724 31.8314 68.0053 31.7337C67.9349 31.6893 67.8844 31.6382 67.8536 31.5805C67.8272 31.5183 67.8162 31.4583 67.8206 31.4006C67.8294 31.3384 67.8514 31.2851 67.8866 31.2407C67.9261 31.1963 67.9745 31.1674 68.0317 31.1541C68.0933 31.1408 68.1592 31.1519 68.2296 31.1874C68.4055 31.2718 68.5704 31.3317 68.7244 31.3673C68.8783 31.3984 69.03 31.4139 69.1796 31.4139C69.3907 31.4139 69.5468 31.3784 69.648 31.3073C69.7535 31.2318 69.8063 31.1341 69.8063 31.0142C69.8063 30.912 69.7711 30.8343 69.7007 30.781C69.6348 30.7233 69.5336 30.6811 69.3973 30.6544L68.7376 30.5279C68.4649 30.4746 68.256 30.3746 68.1109 30.2281C67.9701 30.0771 67.8998 29.8839 67.8998 29.6485C67.8998 29.4353 67.9569 29.251 68.0713 29.0955C68.19 28.9401 68.3527 28.8202 68.5595 28.7358C68.7662 28.6514 69.0036 28.6092 69.2719 28.6092C69.4654 28.6092 69.6457 28.6314 69.8129 28.6758C69.9844 28.7158 70.1493 28.7802 70.3076 28.869C70.3736 28.9046 70.4176 28.9512 70.4396 29.0089C70.466 29.0667 70.4726 29.1266 70.4594 29.1888C70.4462 29.2465 70.4198 29.2998 70.3802 29.3487C70.3406 29.3931 70.2901 29.422 70.2285 29.4353C70.1713 29.4442 70.1053 29.4309 70.0306 29.3953C69.8942 29.3243 69.7623 29.2732 69.6348 29.2421C69.5116 29.211 69.3929 29.1955 69.2785 29.1955C69.063 29.1955 68.9025 29.2332 68.7969 29.3087C68.6958 29.3842 68.6452 29.4842 68.6452 29.6085C68.6452 29.7018 68.676 29.7795 68.7376 29.8417C68.7991 29.9039 68.8937 29.946 69.0212 29.9683L69.6809 30.0948C69.9668 30.1481 70.1823 30.2458 70.3274 30.388C70.477 30.5301 70.5517 30.7211 70.5517 30.9609C70.5517 31.2851 70.4264 31.5405 70.1757 31.727C69.925 31.9091 69.5908 32.0002 69.173 32.0002Z" fill="white"/>
</g>
</g>
</g>
<defs>
<linearGradient id="paint0_linear_669_5039" x1="0" y1="0" x2="76.4839" y2="0.947651" gradientUnits="userSpaceOnUse">
<stop stop-color="white"/>
<stop offset="0.6" stop-color="white" stop-opacity="0.75"/>
<stop offset="1" stop-color="white" stop-opacity="0.25"/>
</linearGradient>
</defs>
</svg>
